<?xml version="1.0" encoding="UTF-8" standalone="no"?>
<!DOCTYPE svg PUBLIC "-//W3C//DTD SVG 1.1//EN"
 "http://www.w3.org/Graphics/SVG/1.1/DTD/svg11.dtd">
<!-- Generated by graphviz version 2.43.0 (0)
 -->
<!-- Title: workflow Pages: 1 -->
<svg width="594pt" height="148pt"
 viewBox="0.00 0.00 594.00 148.00" xmlns="http://www.w3.org/2000/svg" xmlns:xlink="http://www.w3.org/1999/xlink">
<g id="graph0" class="graph" transform="scale(1 1) rotate(0) translate(4 144)">
<title>workflow</title>
<polygon fill="white" stroke="transparent" points="-4,4 -4,-144 590,-144 590,4 -4,4"/>
<g id="clust1" class="cluster">
<title>cluster_0</title>
<polygon fill="white" stroke="black" points="8,-80 8,-132 578,-132 578,-80 8,-80"/>
</g>
<g id="clust2" class="cluster">
<title>cluster_1</title>
<polygon fill="palegreen" stroke="black" points="85,-8 85,-60 563,-60 563,-8 85,-8"/>
</g>
<!-- PORT943659381 -->
<g id="node1" class="node">
<title>PORT943659381</title>
<polygon fill="none" stroke="black" points="569.64,-106 514.82,-124 405.18,-124 350.36,-106 405.18,-88 514.82,-88 569.64,-106"/>
<text text-anchor="middle" x="460" y="-102.3" font-family="Times,serif" font-size="14.00">File hostname.out</text>
</g>
<!-- PORT1044965465 -->
<g id="node2" class="node">
<title>PORT1044965465</title>
<ellipse fill="none" stroke="black" cx="460" cy="-34" rx="94.78" ry="18"/>
<text text-anchor="middle" x="460" y="-30.3" font-family="Times,serif" font-size="14.00">File hostname.out</text>
</g>
<!-- PORT943659381&#45;&gt;PORT1044965465 -->
<g id="edge1" class="edge">
<title>PORT943659381&#45;&gt;PORT1044965465</title>
<path fill="none" stroke="black" d="M460,-87.7C460,-79.98 460,-70.71 460,-62.11"/>
<polygon fill="black" stroke="black" points="463.5,-62.1 460,-52.1 456.5,-62.1 463.5,-62.1"/>
</g>
<!-- NODE835426017 -->
<g id="node3" class="node">
<title>NODE835426017</title>
<text text-anchor="middle" x="174" y="-102.3" font-family="Times,serif" font-size="14.00">call hello_hostname.hostname (hostname)</text>
</g>
<!-- NODE1438178266 -->
<g id="node4" class="node">
<title>NODE1438178266</title>
<text text-anchor="middle" x="300" y="-30.3" font-family="Times,serif" font-size="14.00">File stdout</text>
</g>
<!-- PORT767393855 -->
<g id="node5" class="node">
<title>PORT767393855</title>
<polygon fill="none" stroke="black" points="234.59,-34 199.3,-52 128.7,-52 93.41,-34 128.7,-16 199.3,-16 234.59,-34"/>
<text text-anchor="middle" x="164" y="-30.3" font-family="Times,serif" font-size="14.00">File stdout</text>
</g>
</g>
</svg>
